<?xml version="1.0" encoding="UTF-8"?>
<svg version="1.1" viewBox="0 0 398.35 304.19" xmlns="http://www.w3.org/2000/svg">
 <g transform="translate(-109.7 -133)">
  <path d="m338.3 133c-4.2479 0-22.322 4.9385-25.508 6.2854-3.1859 1.3469-11.164 7.1721-13.288 10.764-2.1239 3.5916-2.1041 6.3134-4.2281 7.6603-2.1239 1.3469-7.4338 6.7175-7.4338 6.7175l3.2058 2.7106 5.8078 14.81 3.7169 21.999-1.5797 13.474 2.6483 4.4784-11.662 7.621-22.302 13.042-18.074 7.621-7.945 2.2392-44.092-24.67-15.379-6.7568-4.2745-8.9567 5.8542-13.474 2.1373-16.617-3.7169-7.6211s-4.779-2.7217-3.717-4.5176c1.0619-1.7958-1.0686-4.0462-1.0686-4.0462l-7.4339-4.4783s-25.481-0.43214-28.667 2.7105c-3.186 3.1428-9.0468 4.035-14.357 8.5246-5.3099 4.4895-13.806 5.8252-14.868 10.764-1.062 4.9386-3.7037 13.94-1.5797 19.328 2.124 5.3874 3.7103 14.333 13.799 19.72 10.089 5.3875 22.302 7.1945 26.018 8.0924 3.7169 0.89793 11.151 4.4784 11.151 4.4784s7.4405 5.8476 8.5025 8.0924 43.024 25.613 43.024 25.613l19.096 12.099 31.315-2.2391 11.708 10.332 9.0136 3.1427 24.95-8.9959 22.859-2.6713 30.758 24.67 9.0601 8.5246-32.384-2.6713-11.151-2.7106s-10.122-8.0643-12.777-6.7175-13.275 8.0812-14.868 6.2854-7.4406-4.9441-12.219-4.0463c-4.779 0.89798-12.73 8.996-12.73 8.996l-1.0686 15.714s2.6549 19.726 7.4338 23.767c4.779 4.0407 22.866 18.407 31.362 25.142 8.4958 6.7343 28.667 25.142 28.667 28.284 0 3.1427-18.067 13.497-20.722 13.946-2.655 0.44897-23.344 2.2111-22.813 4.007 0.53094 1.7958 16.421 11.246 19.607 9.8994 3.186-1.3468 48.32 2.2391 48.32 2.2391l28.156-12.138 16.447-8.9567s-13.799-14.389-17.516-16.185c-3.717-1.7958-5.8277-5.3707-1.5798-6.7174 4.2481-1.347 9.0402-7.6212 9.5712-10.764 0.53101-3.1427 20.164 0.43207 20.164 0.43207l10.64 5.3819s11.131 11.678 11.662 13.474c0.53104 1.7957 10.64 17.049 10.64 17.049l9.5247 16.617s20.178 4.4897 22.302 3.1427c2.1239-1.3468 7.467-3.5972 12.777-7.1887 5.3098-3.5916 11.131-7.1496 7.9449-10.292-3.186-3.1427-7.9581-7.6322-10.082-9.4282-2.1239-1.7957-1.593-3.614 0-6.7566 1.5929-3.1427 2.6482-10.332 2.6482-10.332s-7.4272-7.6324-10.082-9.4282c-2.6549-1.7958-7.4206-3.1427-5.2966-6.2854 2.124-3.1428 5.8277-10.332 9.0137-13.474 3.1858-3.1427 11.662-16.162 11.662-18.856 0-2.6938-1.5598-11.639-2.0908-13.435-0.53091-1.7958-0.019-10.775 0.51117-12.571 0.53091-1.7958 4.2281-2.7274 0.51105-8.5638-3.717-5.8365-7.4008-10.752-9.5246-12.099-2.124-1.3469-5.343-5.4044-9.0601-8.996-3.7168-3.5916-7.9514-4.9217-9.0135-6.7175-1.062-1.7958-11.151-13.037-11.151-15.281 0-2.2447-4.228-13.003-4.228-13.003l-10.64-11.667s-5.8343-6.3023-6.3653-8.996c-0.53104-2.6938-10.082-13.906-10.082-13.906l-18.074-16.185s-23.894-4.9105-26.018-4.9105c-2.1239 0-11.682-3.6141-11.151-6.7568 0.53088-3.1427 5.8541-6.2854 5.8541-6.2854s0.5176-7.6379-2.1373-7.1889c-2.6549 0.44894-2.0908-7.1833-2.0908-9.4281s-6.4116-17.481-6.4116-17.481l-6.8763-3.6141-5.2966-12.571s-19.122-2.2392-23.37-2.2392zm-42.234 35.041h5.2966l2.416 4.9105-1.5797 6.5211-4.2745-2.0035-1.8584-9.4281zm4.2745 15.714 3.4381 0.4321 0.5111 13.906-2.3696 0.9035-1.5797-15.242zm4.5068 24.434 2.0908 9.2317s-1.8518 1.577-2.6483 2.4748c-0.79648 0.89793-2.3696-3.8498-2.3696-3.8498l0.7898-6.4819 2.1373-1.3749v1e-5z" fill="#7f0000"/>
 </g>
</svg>
